<svg width="24" height="24" xmlns="http://www.w3.org/2000/svg">

 <g>
  <title>background</title>
  <rect fill="none" id="canvas_background" height="402" width="582" y="-1" x="-1"/>
 </g>
 <g>
  <title>Layer 1</title>
  <path stroke="null" id="svg_1" d="m19.777765,2.000016a2.222219,2.222219 0 0 1 2.222219,2.222219l0,15.555531a2.222219,2.222219 0 0 1 -2.222219,2.222219l-15.555531,0a2.222219,2.222219 0 0 1 -2.222219,-2.222219l0,-15.555531a2.222219,2.222219 0 0 1 2.222219,-2.222219l15.555531,0m-0.555555,17.222195l0,-5.888879a3.622216,3.622216 0 0 0 -3.622216,-3.622216c-0.944443,0 -2.044441,0.577777 -2.577774,1.444442l0,-1.233331l-3.099995,0l0,9.299985l3.099995,0l0,-5.477769c0,-0.855554 0.688888,-1.555553 1.544442,-1.555553a1.555553,1.555553 0 0 1 1.555553,1.555553l0,5.477769l3.099995,0m-12.91109,-11.044427a1.866664,1.866664 0 0 0 1.866664,-1.866664c0,-1.033332 -0.833332,-1.877775 -1.866664,-1.877775a1.877775,1.877775 0 0 0 -1.877775,1.877775c0,1.033332 0.844443,1.866664 1.877775,1.866664m1.544442,11.044427l0,-9.299985l-3.077773,0l0,9.299985l3.077773,0z" fill="#ffffff"/>
 </g>
</svg>