<?xml version="1.0" standalone="no"?>
<!DOCTYPE svg PUBLIC "-//W3C//DTD SVG 20010904//EN"
 "http://www.w3.org/TR/2001/REC-SVG-20010904/DTD/svg10.dtd">
<svg version="1.0" xmlns="http://www.w3.org/2000/svg"
 width="512.000000pt" height="512.000000pt" viewBox="0 0 512.000000 512.000000"
 preserveAspectRatio="xMidYMid meet">
<metadata>
Created by potrace 1.14, written by Peter Selinger 2001-2017
</metadata>
<g transform="translate(0.000000,512.000000) scale(0.100000,-0.100000)"
fill="#000000" stroke="none">
<path d="M880 5113 c-169 -27 -300 -76 -427 -158 -214 -140 -371 -366 -429
-620 -18 -76 -19 -160 -19 -1775 0 -1617 1 -1699 19 -1775 88 -381 380 -673
761 -761 76 -18 158 -19 1775 -19 1617 0 1699 1 1775 19 381 88 673 380 761
761 18 76 19 158 19 1775 0 1617 -1 1699 -19 1775 -87 374 -362 655 -741 758
l-80 22 -1685 1 c-927 1 -1696 0 -1710 -3z m2025 -358 c599 -93 1098 -424
1392 -924 348 -590 419 -1461 178 -2162 -80 -230 -226 -488 -379 -668 -363
-429 -988 -683 -1616 -657 -454 18 -813 142 -1156 397 -509 380 -814 1044
-814 1775 0 874 309 1535 903 1935 281 189 568 284 972 323 84 8 425 -4 520
-19z"/>
<path d="M2405 4284 c-476 -52 -908 -334 -1104 -721 -80 -159 -138 -353 -172
-575 -31 -195 -38 -613 -14 -799 51 -405 193 -711 445 -959 198 -194 419 -313
693 -372 141 -30 444 -32 592 -4 280 52 508 170 710 367 254 247 394 549 457
984 20 142 17 591 -6 735 -61 391 -198 694 -415 923 -194 203 -436 337 -719
397 -95 21 -369 34 -467 24z"/>
</g>
</svg>
