<svg xmlns="http://www.w3.org/2000/svg" width="1920" height="1200"><path d="M244,1466L-169,1471L612,1478Z" fill="#6d6d6d" stroke="#6d6d6d" stroke-width="1.51"/><path d="M-208,-262L233,-228L689,-276Z" fill="#efefef" stroke="#efefef" stroke-width="1.51"/><path d="M1293,1397L1012,1471L1606,1413Z" fill="#3d3d3d" stroke="#3d3d3d" stroke-width="1.51"/><path d="M689,-276L1062,-268L1630,-283Z" fill="#bebebe" stroke="#bebebe" stroke-width="1.51"/><path d="M1131,-262L1391,-240L1630,-283Z" fill="#adadad" stroke="#adadad" stroke-width="1.51"/><path d="M1062,-268L1131,-262L1630,-283Z" fill="#b4b4b4" stroke="#b4b4b4" stroke-width="1.51"/><path d="M1606,1413L1012,1471L1755,1417Z" fill="#343434" stroke="#343434" stroke-width="1.51"/><path d="M1755,1417L1012,1471L2105,1440Z" fill="#2a2a2a" stroke="#2a2a2a" stroke-width="1.51"/><path d="M1873,1388L1755,1417L2105,1440Z" fill="#191919" stroke="#191919" stroke-width="1.51"/><path d="M2081,1221L1873,1388L2105,1440Z" fill="#181818" stroke="#181818" stroke-width="1.51"/><path d="M2067,-88L1922,56L2112,119Z" fill="#737373" stroke="#737373" stroke-width="1.51"/><path d="M2031,515L1950,677L2113,719Z" fill="#4e4e4e" stroke="#4e4e4e" stroke-width="1.51"/><path d="M2112,119L2071,242L2115,406Z" fill="#646464" stroke="#646464" stroke-width="1.51"/><path d="M2031,515L2113,719L2115,406Z" fill="#515151" stroke="#515151" stroke-width="1.51"/><path d="M2081,1221L2105,1440L2129,1118Z" fill="#1a1a1a" stroke="#1a1a1a" stroke-width="1.51"/><path d="M2112,119L2115,406L2134,1006Z" fill="#525252" stroke="#525252" stroke-width="1.51"/><path d="M1978,1003L2129,1118L2134,1006Z" fill="#303030" stroke="#303030" stroke-width="1.51"/><path d="M2022,862L1978,1003L2134,1006Z" fill="#373737" stroke="#373737" stroke-width="1.51"/><path d="M2113,719L2022,862L2134,1006Z" fill="#3b3b3b" stroke="#3b3b3b" stroke-width="1.51"/><path d="M2115,406L2113,719L2134,1006Z" fill="#444444" stroke="#444444" stroke-width="1.51"/><path d="M1911,1172L2081,1221L2129,1118Z" fill="#262626" stroke="#262626" stroke-width="1.51"/><path d="M1978,1003L1911,1172L2129,1118Z" fill="#2e2e2e" stroke="#2e2e2e" stroke-width="1.51"/><path d="M1942,220L1874,422L2071,242Z" fill="#6a6a6a" stroke="#6a6a6a" stroke-width="1.51"/><path d="M1885,1235L1873,1388L2081,1221Z" fill="#202020" stroke="#202020" stroke-width="1.51"/><path d="M1942,220L2071,242L2112,119Z" fill="#6b6b6b" stroke="#6b6b6b" stroke-width="1.51"/><path d="M1950,677L2022,862L2113,719Z" fill="#464646" stroke="#464646" stroke-width="1.51"/><path d="M1921,485L2031,515L2115,406Z" fill="#5b5b5b" stroke="#5b5b5b" stroke-width="1.51"/><path d="M2071,242L1874,422L2115,406Z" fill="#636363" stroke="#636363" stroke-width="1.51"/><path d="M1874,422L1921,485L2115,406Z" fill="#606060" stroke="#606060" stroke-width="1.51"/><path d="M1922,56L1942,220L2112,119Z" fill="#717171" stroke="#717171" stroke-width="1.51"/><path d="M1934,-131L1922,56L2067,-88Z" fill="#7b7b7b" stroke="#7b7b7b" stroke-width="1.51"/><path d="M1911,1172L1885,1235L2081,1221Z" fill="#262626" stroke="#262626" stroke-width="1.51"/><path d="M1950,677L1902,836L2022,862Z" fill="#474747" stroke="#474747" stroke-width="1.51"/><path d="M2041,-164L1934,-131L2067,-88Z" fill="#7b7b7b" stroke="#7b7b7b" stroke-width="1.51"/><path d="M1921,485L1950,677L2031,515Z" fill="#575757" stroke="#575757" stroke-width="1.51"/><path d="M1887,-282L1934,-131L2041,-164Z" fill="#818181" stroke="#818181" stroke-width="1.51"/><path d="M1902,836L1978,1003L2022,862Z" fill="#3f3f3f" stroke="#3f3f3f" stroke-width="1.51"/><path d="M1514,1391L1293,1397L1606,1413Z" fill="#363636" stroke="#363636" stroke-width="1.51"/><path d="M1902,836L1848,964L1978,1003Z" fill="#404040" stroke="#404040" stroke-width="1.51"/><path d="M1801,513L1799,651L1921,485Z" fill="#606060" stroke="#606060" stroke-width="1.51"/><path d="M1755,-57L1922,56L1934,-131Z" fill="#818181" stroke="#818181" stroke-width="1.51"/><path d="M1887,-282L1826,-179L1934,-131Z" fill="#858585" stroke="#858585" stroke-width="1.51"/><path d="M1826,412L1874,422L1942,220Z" fill="#6c6c6c" stroke="#6c6c6c" stroke-width="1.51"/><path d="M1921,485L1799,651L1950,677Z" fill="#585858" stroke="#585858" stroke-width="1.51"/><path d="M1848,964L1911,1172L1978,1003Z" fill="#393939" stroke="#393939" stroke-width="1.51"/><path d="M1820,1332L1873,1388L1885,1235Z" fill="#222222" stroke="#222222" stroke-width="1.51"/><path d="M1848,964L1775,1162L1911,1172Z" fill="#373737" stroke="#373737" stroke-width="1.51"/><path d="M1779,177L1826,412L1942,220Z" fill="#737373" stroke="#737373" stroke-width="1.51"/><path d="M1922,56L1779,177L1942,220Z" fill="#777777" stroke="#777777" stroke-width="1.51"/><path d="M1799,651L1902,836L1950,677Z" fill="#505050" stroke="#505050" stroke-width="1.51"/><path d="M1826,-179L1755,-57L1934,-131Z" fill="#868686" stroke="#868686" stroke-width="1.51"/><path d="M1755,-57L1738,17L1922,56Z" fill="#848484" stroke="#848484" stroke-width="1.51"/><path d="M1799,651L1767,870L1902,836Z" fill="#505050" stroke="#505050" stroke-width="1.51"/><path d="M1738,17L1779,177L1922,56Z" fill="#808080" stroke="#808080" stroke-width="1.51"/><path d="M1874,422L1801,513L1921,485Z" fill="#646464" stroke="#646464" stroke-width="1.51"/><path d="M1767,870L1848,964L1902,836Z" fill="#474747" stroke="#474747" stroke-width="1.51"/><path d="M1775,1162L1885,1235L1911,1172Z" fill="#2d2d2d" stroke="#2d2d2d" stroke-width="1.51"/><path d="M1163,1413L1012,1471L1293,1397Z" fill="#444444" stroke="#444444" stroke-width="1.51"/><path d="M1683,1098L1775,1162L1848,964Z" fill="#3f3f3f" stroke="#3f3f3f" stroke-width="1.51"/><path d="M1826,412L1801,513L1874,422Z" fill="#696969" stroke="#696969" stroke-width="1.51"/><path d="M1630,-283L1826,-179L1887,-282Z" fill="#8f8f8f" stroke="#8f8f8f" stroke-width="1.51"/><path d="M1775,1162L1820,1332L1885,1235Z" fill="#2a2a2a" stroke="#2a2a2a" stroke-width="1.51"/><path d="M1820,1332L1755,1417L1873,1388Z" fill="#212121" stroke="#212121" stroke-width="1.51"/><path d="M1620,717L1767,870L1799,651Z" fill="#5a5a5a" stroke="#5a5a5a" stroke-width="1.51"/><path d="M1779,177L1604,260L1826,412Z" fill="#7c7c7c" stroke="#7c7c7c" stroke-width="1.51"/><path d="M1767,870L1683,1098L1848,964Z" fill="#464646" stroke="#464646" stroke-width="1.51"/><path d="M1601,995L1683,1098L1767,870Z" fill="#4d4d4d" stroke="#4d4d4d" stroke-width="1.51"/><path d="M1775,1162L1640,1270L1820,1332Z" fill="#2f2f2f" stroke="#2f2f2f" stroke-width="1.51"/><path d="M1653,-111L1755,-57L1826,-179Z" fill="#8f8f8f" stroke="#8f8f8f" stroke-width="1.51"/><path d="M1630,-283L1653,-111L1826,-179Z" fill="#949494" stroke="#949494" stroke-width="1.51"/><path d="M1576,386L1801,513L1826,412Z" fill="#717171" stroke="#717171" stroke-width="1.51"/><path d="M1604,260L1576,386L1826,412Z" fill="#7e7e7e" stroke="#7e7e7e" stroke-width="1.51"/><path d="M1620,717L1655,865L1767,870Z" fill="#595959" stroke="#595959" stroke-width="1.51"/><path d="M1598,552L1799,651L1801,513Z" fill="#676767" stroke="#676767" stroke-width="1.51"/><path d="M1640,1270L1755,1417L1820,1332Z" fill="#292929" stroke="#292929" stroke-width="1.51"/><path d="M1655,865L1601,995L1767,870Z" fill="#535353" stroke="#535353" stroke-width="1.51"/><path d="M1598,552L1620,717L1799,651Z" fill="#676767" stroke="#676767" stroke-width="1.51"/><path d="M1576,386L1598,552L1801,513Z" fill="#747474" stroke="#747474" stroke-width="1.51"/><path d="M1683,1098L1640,1270L1775,1162Z" fill="#3a3a3a" stroke="#3a3a3a" stroke-width="1.51"/><path d="M1738,17L1590,37L1779,177Z" fill="#898989" stroke="#898989" stroke-width="1.51"/><path d="M1590,37L1604,260L1779,177Z" fill="#8a8a8a" stroke="#8a8a8a" stroke-width="1.51"/><path d="M1640,1270L1606,1413L1755,1417Z" fill="#2c2c2c" stroke="#2c2c2c" stroke-width="1.51"/><path d="M1653,-111L1738,17L1755,-57Z" fill="#8e8e8e" stroke="#8e8e8e" stroke-width="1.51"/><path d="M1653,-111L1590,37L1738,17Z" fill="#919191" stroke="#919191" stroke-width="1.51"/><path d="M1630,-283L1522,-173L1653,-111Z" fill="#9d9d9d" stroke="#9d9d9d" stroke-width="1.51"/><path d="M1538,1161L1640,1270L1683,1098Z" fill="#404040" stroke="#404040" stroke-width="1.51"/><path d="M1601,995L1538,1161L1683,1098Z" fill="#4b4b4b" stroke="#4b4b4b" stroke-width="1.51"/><path d="M1576,386L1516,421L1598,552Z" fill="#7e7e7e" stroke="#7e7e7e" stroke-width="1.51"/><path d="M1590,37L1424,171L1604,260Z" fill="#939393" stroke="#939393" stroke-width="1.51"/><path d="M1598,552L1539,731L1620,717Z" fill="#6c6c6c" stroke="#6c6c6c" stroke-width="1.51"/><path d="M1514,1391L1606,1413L1640,1270Z" fill="#333333" stroke="#333333" stroke-width="1.51"/><path d="M1498,-59L1590,37L1653,-111Z" fill="#9a9a9a" stroke="#9a9a9a" stroke-width="1.51"/><path d="M1511,962L1601,995L1655,865Z" fill="#575757" stroke="#575757" stroke-width="1.51"/><path d="M1474,858L1511,962L1655,865Z" fill="#5e5e5e" stroke="#5e5e5e" stroke-width="1.51"/><path d="M1620,717L1539,731L1655,865Z" fill="#626262" stroke="#626262" stroke-width="1.51"/><path d="M1539,731L1474,858L1655,865Z" fill="#636363" stroke="#636363" stroke-width="1.51"/><path d="M1522,-173L1498,-59L1653,-111Z" fill="#9f9f9f" stroke="#9f9f9f" stroke-width="1.51"/><path d="M1476,578L1539,731L1598,552Z" fill="#737373" stroke="#737373" stroke-width="1.51"/><path d="M1538,1161L1464,1231L1640,1270Z" fill="#414141" stroke="#414141" stroke-width="1.51"/><path d="M1464,1231L1514,1391L1640,1270Z" fill="#3a3a3a" stroke="#3a3a3a" stroke-width="1.51"/><path d="M1469,28L1424,171L1590,37Z" fill="#9a9a9a" stroke="#9a9a9a" stroke-width="1.51"/><path d="M1391,-240L1522,-173L1630,-283Z" fill="#a5a5a5" stroke="#a5a5a5" stroke-width="1.51"/><path d="M1511,962L1538,1161L1601,995Z" fill="#535353" stroke="#535353" stroke-width="1.51"/><path d="M1369,325L1516,421L1576,386Z" fill="#8a8a8a" stroke="#8a8a8a" stroke-width="1.51"/><path d="M1516,421L1476,578L1598,552Z" fill="#7b7b7b" stroke="#7b7b7b" stroke-width="1.51"/><path d="M1369,325L1576,386L1604,260Z" fill="#8b8b8b" stroke="#8b8b8b" stroke-width="1.51"/><path d="M1387,231L1369,325L1604,260Z" fill="#929292" stroke="#929292" stroke-width="1.51"/><path d="M1424,171L1387,231L1604,260Z" fill="#949494" stroke="#949494" stroke-width="1.51"/><path d="M1498,-59L1469,28L1590,37Z" fill="#9c9c9c" stroke="#9c9c9c" stroke-width="1.51"/><path d="M1511,962L1380,1111L1538,1161Z" fill="#535353" stroke="#535353" stroke-width="1.51"/><path d="M1384,511L1476,578L1516,421Z" fill="#818181" stroke="#818181" stroke-width="1.51"/><path d="M1380,1111L1464,1231L1538,1161Z" fill="#4b4b4b" stroke="#4b4b4b" stroke-width="1.51"/><path d="M1476,578L1279,733L1539,731Z" fill="#747474" stroke="#747474" stroke-width="1.51"/><path d="M1279,733L1474,858L1539,731Z" fill="#6d6d6d" stroke="#6d6d6d" stroke-width="1.51"/><path d="M1464,1231L1302,1303L1514,1391Z" fill="#3f3f3f" stroke="#3f3f3f" stroke-width="1.51"/><path d="M1345,-89L1498,-59L1522,-173Z" fill="#a4a4a4" stroke="#a4a4a4" stroke-width="1.51"/><path d="M1391,-240L1345,-89L1522,-173Z" fill="#a8a8a8" stroke="#a8a8a8" stroke-width="1.51"/><path d="M1292,1027L1380,1111L1511,962Z" fill="#5c5c5c" stroke="#5c5c5c" stroke-width="1.51"/><path d="M1302,1303L1293,1397L1514,1391Z" fill="#3e3e3e" stroke="#3e3e3e" stroke-width="1.51"/><path d="M1369,325L1384,511L1516,421Z" fill="#8a8a8a" stroke="#8a8a8a" stroke-width="1.51"/><path d="M1474,858L1292,1027L1511,962Z" fill="#616161" stroke="#616161" stroke-width="1.51"/><path d="M1288,853L1292,1027L1474,858Z" fill="#676767" stroke="#676767" stroke-width="1.51"/><path d="M1279,733L1288,853L1474,858Z" fill="#6f6f6f" stroke="#6f6f6f" stroke-width="1.51"/><path d="M1345,-89L1469,28L1498,-59Z" fill="#a3a3a3" stroke="#a3a3a3" stroke-width="1.51"/><path d="M1292,131L1424,171L1469,28Z" fill="#9e9e9e" stroke="#9e9e9e" stroke-width="1.51"/><path d="M1384,511L1279,733L1476,578Z" fill="#7d7d7d" stroke="#7d7d7d" stroke-width="1.51"/><path d="M1345,-89L1292,131L1469,28Z" fill="#a4a4a4" stroke="#a4a4a4" stroke-width="1.51"/><path d="M1380,1111L1302,1303L1464,1231Z" fill="#4a4a4a" stroke="#4a4a4a" stroke-width="1.51"/><path d="M1207,-27L1292,131L1345,-89Z" fill="#ababab" stroke="#ababab" stroke-width="1.51"/><path d="M1292,131L1387,231L1424,171Z" fill="#9d9d9d" stroke="#9d9d9d" stroke-width="1.51"/><path d="M1155,536L1172,688L1279,733Z" fill="#848484" stroke="#848484" stroke-width="1.51"/><path d="M1207,-27L1232,111L1292,131Z" fill="#a9a9a9" stroke="#a9a9a9" stroke-width="1.51"/><path d="M1203,1218L1302,1303L1380,1111Z" fill="#4f4f4f" stroke="#4f4f4f" stroke-width="1.51"/><path d="M1369,325L1135,389L1384,511Z" fill="#929292" stroke="#929292" stroke-width="1.51"/><path d="M1135,389L1155,536L1384,511Z" fill="#919191" stroke="#919191" stroke-width="1.51"/><path d="M1155,536L1279,733L1384,511Z" fill="#848484" stroke="#848484" stroke-width="1.51"/><path d="M1244,175L1369,325L1387,231Z" fill="#9b9b9b" stroke="#9b9b9b" stroke-width="1.51"/><path d="M1292,131L1244,175L1387,231Z" fill="#a0a0a0" stroke="#a0a0a0" stroke-width="1.51"/><path d="M1131,-262L1345,-89L1391,-240Z" fill="#b2b2b2" stroke="#b2b2b2" stroke-width="1.51"/><path d="M1292,1027L1203,1218L1380,1111Z" fill="#595959" stroke="#595959" stroke-width="1.51"/><path d="M1244,175L1135,389L1369,325Z" fill="#9c9c9c" stroke="#9c9c9c" stroke-width="1.51"/><path d="M1131,-262L1207,-27L1345,-89Z" fill="#b3b3b3" stroke="#b3b3b3" stroke-width="1.51"/><path d="M1279,733L1215,797L1288,853Z" fill="#757575" stroke="#757575" stroke-width="1.51"/><path d="M1215,797L1162,1024L1288,853Z" fill="#707070" stroke="#707070" stroke-width="1.51"/><path d="M1140,1064L1203,1218L1292,1027Z" fill="#5f5f5f" stroke="#5f5f5f" stroke-width="1.51"/><path d="M1162,1024L1140,1064L1292,1027Z" fill="#676767" stroke="#676767" stroke-width="1.51"/><path d="M1288,853L1162,1024L1292,1027Z" fill="#696969" stroke="#696969" stroke-width="1.51"/><path d="M1163,1413L1293,1397L1302,1303Z" fill="#434343" stroke="#434343" stroke-width="1.51"/><path d="M1203,1218L1163,1413L1302,1303Z" fill="#494949" stroke="#494949" stroke-width="1.51"/><path d="M1061,271L1135,389L1244,175Z" fill="#a4a4a4" stroke="#a4a4a4" stroke-width="1.51"/><path d="M1232,111L1244,175L1292,131Z" fill="#a5a5a5" stroke="#a5a5a5" stroke-width="1.51"/><path d="M1131,-262L1092,-35L1207,-27Z" fill="#b7b7b7" stroke="#b7b7b7" stroke-width="1.51"/><path d="M1172,688L1215,797L1279,733Z" fill="#7b7b7b" stroke="#7b7b7b" stroke-width="1.51"/><path d="M1061,271L1062,310L1135,389Z" fill="#a4a4a4" stroke="#a4a4a4" stroke-width="1.51"/><path d="M1061,1226L1163,1413L1203,1218Z" fill="#505050" stroke="#505050" stroke-width="1.51"/><path d="M1081,764L1162,1024L1215,797Z" fill="#767676" stroke="#767676" stroke-width="1.51"/><path d="M1207,-27L1092,-35L1232,111Z" fill="#b1b1b1" stroke="#b1b1b1" stroke-width="1.51"/><path d="M1232,111L1061,271L1244,175Z" fill="#a7a7a7" stroke="#a7a7a7" stroke-width="1.51"/><path d="M1092,-35L1030,10L1232,111Z" fill="#b3b3b3" stroke="#b3b3b3" stroke-width="1.51"/><path d="M1030,10L1061,271L1232,111Z" fill="#afafaf" stroke="#afafaf" stroke-width="1.51"/><path d="M1081,764L985,1001L1162,1024Z" fill="#757575" stroke="#757575" stroke-width="1.51"/><path d="M1140,1064L1061,1226L1203,1218Z" fill="#5c5c5c" stroke="#5c5c5c" stroke-width="1.51"/><path d="M1172,688L1081,764L1215,797Z" fill="#7f7f7f" stroke="#7f7f7f" stroke-width="1.51"/><path d="M1062,-268L1092,-35L1131,-262Z" fill="#bdbdbd" stroke="#bdbdbd" stroke-width="1.51"/><path d="M778,1416L612,1478L1012,1471Z" fill="#565656" stroke="#565656" stroke-width="1.51"/><path d="M927,1370L1012,1471L1061,1226Z" fill="#525252" stroke="#525252" stroke-width="1.51"/><path d="M1135,389L1006,469L1155,536Z" fill="#999999" stroke="#999999" stroke-width="1.51"/><path d="M1061,1226L1012,1471L1163,1413Z" fill="#4c4c4c" stroke="#4c4c4c" stroke-width="1.51"/><path d="M1155,536L995,611L1172,688Z" fill="#8c8c8c" stroke="#8c8c8c" stroke-width="1.51"/><path d="M995,611L1081,764L1172,688Z" fill="#878787" stroke="#878787" stroke-width="1.51"/><path d="M1030,10L913,92L1061,271Z" fill="#b6b6b6" stroke="#b6b6b6" stroke-width="1.51"/><path d="M1062,-268L928,-161L1092,-35Z" fill="#c0c0c0" stroke="#c0c0c0" stroke-width="1.51"/><path d="M983,1181L1061,1226L1140,1064Z" fill="#626262" stroke="#626262" stroke-width="1.51"/><path d="M985,1001L1140,1064L1162,1024Z" fill="#6d6d6d" stroke="#6d6d6d" stroke-width="1.51"/><path d="M1006,469L995,611L1155,536Z" fill="#959595" stroke="#959595" stroke-width="1.51"/><path d="M985,1001L983,1181L1140,1064Z" fill="#6b6b6b" stroke="#6b6b6b" stroke-width="1.51"/><path d="M1062,310L1006,469L1135,389Z" fill="#a1a1a1" stroke="#a1a1a1" stroke-width="1.51"/><path d="M869,881L985,1001L1081,764Z" fill="#7f7f7f" stroke="#7f7f7f" stroke-width="1.51"/><path d="M913,92L894,250L1061,271Z" fill="#b4b4b4" stroke="#b4b4b4" stroke-width="1.51"/><path d="M942,365L1006,469L1062,310Z" fill="#a6a6a6" stroke="#a6a6a6" stroke-width="1.51"/><path d="M903,719L869,881L1081,764Z" fill="#888888" stroke="#888888" stroke-width="1.51"/><path d="M995,611L903,719L1081,764Z" fill="#8c8c8c" stroke="#8c8c8c" stroke-width="1.51"/><path d="M928,-161L1030,10L1092,-35Z" fill="#bebebe" stroke="#bebebe" stroke-width="1.51"/><path d="M689,-276L928,-161L1062,-268Z" fill="#cccccc" stroke="#cccccc" stroke-width="1.51"/><path d="M928,-161L881,-93L1030,10Z" fill="#c3c3c3" stroke="#c3c3c3" stroke-width="1.51"/><path d="M983,1181L927,1370L1061,1226Z" fill="#5a5a5a" stroke="#5a5a5a" stroke-width="1.51"/><path d="M1061,271L942,365L1062,310Z" fill="#a9a9a9" stroke="#a9a9a9" stroke-width="1.51"/><path d="M869,881L867,921L985,1001Z" fill="#7f7f7f" stroke="#7f7f7f" stroke-width="1.51"/><path d="M894,250L942,365L1061,271Z" fill="#aeaeae" stroke="#aeaeae" stroke-width="1.51"/><path d="M831,1275L927,1370L983,1181Z" fill="#5d5d5d" stroke="#5d5d5d" stroke-width="1.51"/><path d="M860,1088L983,1181L985,1001Z" fill="#707070" stroke="#707070" stroke-width="1.51"/><path d="M881,-93L913,92L1030,10Z" fill="#bfbfbf" stroke="#bfbfbf" stroke-width="1.51"/><path d="M830,573L995,611L1006,469Z" fill="#9b9b9b" stroke="#9b9b9b" stroke-width="1.51"/><path d="M927,1370L778,1416L1012,1471Z" fill="#535353" stroke="#535353" stroke-width="1.51"/><path d="M-208,-262L-27,-222L233,-228Z" fill="#f7f7f7" stroke="#f7f7f7" stroke-width="1.51"/><path d="M942,365L774,474L1006,469Z" fill="#a7a7a7" stroke="#a7a7a7" stroke-width="1.51"/><path d="M774,474L830,573L1006,469Z" fill="#a4a4a4" stroke="#a4a4a4" stroke-width="1.51"/><path d="M830,573L903,719L995,611Z" fill="#969696" stroke="#969696" stroke-width="1.51"/><path d="M867,921L860,1088L985,1001Z" fill="#7a7a7a" stroke="#7a7a7a" stroke-width="1.51"/><path d="M860,1088L831,1275L983,1181Z" fill="#696969" stroke="#696969" stroke-width="1.51"/><path d="M769,1212L831,1275L860,1088Z" fill="#6c6c6c" stroke="#6c6c6c" stroke-width="1.51"/><path d="M894,250L697,387L942,365Z" fill="#b3b3b3" stroke="#b3b3b3" stroke-width="1.51"/><path d="M697,387L774,474L942,365Z" fill="#b0b0b0" stroke="#b0b0b0" stroke-width="1.51"/><path d="M720,264L697,387L894,250Z" fill="#bababa" stroke="#bababa" stroke-width="1.51"/><path d="M769,702L869,881L903,719Z" fill="#909090" stroke="#909090" stroke-width="1.51"/><path d="M830,573L769,702L903,719Z" fill="#999999" stroke="#999999" stroke-width="1.51"/><path d="M881,-93L694,19L913,92Z" fill="#c7c7c7" stroke="#c7c7c7" stroke-width="1.51"/><path d="M720,264L894,250L913,92Z" fill="#bbbbbb" stroke="#bbbbbb" stroke-width="1.51"/><path d="M700,-127L881,-93L928,-161Z" fill="#cccccc" stroke="#cccccc" stroke-width="1.51"/><path d="M689,-276L700,-127L928,-161Z" fill="#d2d2d2" stroke="#d2d2d2" stroke-width="1.51"/><path d="M831,1275L778,1416L927,1370Z" fill="#5b5b5b" stroke="#5b5b5b" stroke-width="1.51"/><path d="M694,19L720,264L913,92Z" fill="#c5c5c5" stroke="#c5c5c5" stroke-width="1.51"/><path d="M698,1021L860,1088L867,921Z" fill="#808080" stroke="#808080" stroke-width="1.51"/><path d="M769,702L673,782L869,881Z" fill="#939393" stroke="#939393" stroke-width="1.51"/><path d="M700,-127L694,19L881,-93Z" fill="#cfcfcf" stroke="#cfcfcf" stroke-width="1.51"/><path d="M709,1081L769,1212L860,1088Z" fill="#757575" stroke="#757575" stroke-width="1.51"/><path d="M698,1021L709,1081L860,1088Z" fill="#7e7e7e" stroke="#7e7e7e" stroke-width="1.51"/><path d="M673,782L698,1021L867,921Z" fill="#8c8c8c" stroke="#8c8c8c" stroke-width="1.51"/><path d="M673,782L867,921L869,881Z" fill="#8b8b8b" stroke="#8b8b8b" stroke-width="1.51"/><path d="M694,19L630,206L720,264Z" fill="#c8c8c8" stroke="#c8c8c8" stroke-width="1.51"/><path d="M233,-228L439,-184L689,-276Z" fill="#e5e5e5" stroke="#e5e5e5" stroke-width="1.51"/><path d="M617,614L769,702L830,573Z" fill="#a2a2a2" stroke="#a2a2a2" stroke-width="1.51"/><path d="M769,1212L778,1416L831,1275Z" fill="#626262" stroke="#626262" stroke-width="1.51"/><path d="M774,474L617,614L830,573Z" fill="#a8a8a8" stroke="#a8a8a8" stroke-width="1.51"/><path d="M673,782L571,886L698,1021Z" fill="#929292" stroke="#929292" stroke-width="1.51"/><path d="M576,494L617,614L774,474Z" fill="#afafaf" stroke="#afafaf" stroke-width="1.51"/><path d="M769,1212L559,1315L778,1416Z" fill="#666666" stroke="#666666" stroke-width="1.51"/><path d="M559,1315L612,1478L778,1416Z" fill="#626262" stroke="#626262" stroke-width="1.51"/><path d="M697,387L610,414L774,474Z" fill="#b6b6b6" stroke="#b6b6b6" stroke-width="1.51"/><path d="M610,414L576,494L774,474Z" fill="#b6b6b6" stroke="#b6b6b6" stroke-width="1.51"/><path d="M709,1081L579,1104L769,1212Z" fill="#7b7b7b" stroke="#7b7b7b" stroke-width="1.51"/><path d="M579,1104L559,1315L769,1212Z" fill="#747474" stroke="#747474" stroke-width="1.51"/><path d="M617,614L673,782L769,702Z" fill="#a0a0a0" stroke="#a0a0a0" stroke-width="1.51"/><path d="M562,-137L544,16L694,19Z" fill="#d7d7d7" stroke="#d7d7d7" stroke-width="1.51"/><path d="M544,16L630,206L694,19Z" fill="#d0d0d0" stroke="#d0d0d0" stroke-width="1.51"/><path d="M630,206L610,414L697,387Z" fill="#c0c0c0" stroke="#c0c0c0" stroke-width="1.51"/><path d="M562,-137L694,19L700,-127Z" fill="#d7d7d7" stroke="#d7d7d7" stroke-width="1.51"/><path d="M689,-276L587,-173L700,-127Z" fill="#dadada" stroke="#dadada" stroke-width="1.51"/><path d="M630,206L697,387L720,264Z" fill="#c1c1c1" stroke="#c1c1c1" stroke-width="1.51"/><path d="M571,886L544,1020L698,1021Z" fill="#8e8e8e" stroke="#8e8e8e" stroke-width="1.51"/><path d="M698,1021L579,1104L709,1081Z" fill="#838383" stroke="#838383" stroke-width="1.51"/><path d="M587,-173L562,-137L700,-127Z" fill="#dbdbdb" stroke="#dbdbdb" stroke-width="1.51"/><path d="M439,-184L587,-173L689,-276Z" fill="#dfdfdf" stroke="#dfdfdf" stroke-width="1.51"/><path d="M544,1020L579,1104L698,1021Z" fill="#888888" stroke="#888888" stroke-width="1.51"/><path d="M498,226L610,414L630,206Z" fill="#c6c6c6" stroke="#c6c6c6" stroke-width="1.51"/><path d="M617,614L400,827L673,782Z" fill="#a2a2a2" stroke="#a2a2a2" stroke-width="1.51"/><path d="M400,827L571,886L673,782Z" fill="#9b9b9b" stroke="#9b9b9b" stroke-width="1.51"/><path d="M487,1126L559,1315L579,1104Z" fill="#7c7c7c" stroke="#7c7c7c" stroke-width="1.51"/><path d="M498,226L458,354L610,414Z" fill="#c6c6c6" stroke="#c6c6c6" stroke-width="1.51"/><path d="M413,1369L244,1466L612,1478Z" fill="#696969" stroke="#696969" stroke-width="1.51"/><path d="M379,652L400,827L617,614Z" fill="#aaaaaa" stroke="#aaaaaa" stroke-width="1.51"/><path d="M544,16L498,226L630,206Z" fill="#d0d0d0" stroke="#d0d0d0" stroke-width="1.51"/><path d="M-6,1433L-169,1471L244,1466Z" fill="#757575" stroke="#757575" stroke-width="1.51"/><path d="M559,1315L413,1369L612,1478Z" fill="#686868" stroke="#686868" stroke-width="1.51"/><path d="M576,494L496,468L617,614Z" fill="#b4b4b4" stroke="#b4b4b4" stroke-width="1.51"/><path d="M496,468L379,652L617,614Z" fill="#b3b3b3" stroke="#b3b3b3" stroke-width="1.51"/><path d="M496,468L576,494L610,414Z" fill="#bababa" stroke="#bababa" stroke-width="1.51"/><path d="M458,354L496,468L610,414Z" fill="#c0c0c0" stroke="#c0c0c0" stroke-width="1.51"/><path d="M487,1126L401,1326L559,1315Z" fill="#767676" stroke="#767676" stroke-width="1.51"/><path d="M405,-12L544,16L562,-137Z" fill="#dcdcdc" stroke="#dcdcdc" stroke-width="1.51"/><path d="M466,933L544,1020L571,886Z" fill="#939393" stroke="#939393" stroke-width="1.51"/><path d="M439,-184L562,-137L587,-173Z" fill="#dfdfdf" stroke="#dfdfdf" stroke-width="1.51"/><path d="M389,13L498,226L544,16Z" fill="#d7d7d7" stroke="#d7d7d7" stroke-width="1.51"/><path d="M400,827L466,933L571,886Z" fill="#9b9b9b" stroke="#9b9b9b" stroke-width="1.51"/><path d="M544,1020L487,1126L579,1104Z" fill="#878787" stroke="#878787" stroke-width="1.51"/><path d="M439,-184L405,-12L562,-137Z" fill="#e0e0e0" stroke="#e0e0e0" stroke-width="1.51"/><path d="M401,1326L413,1369L559,1315Z" fill="#707070" stroke="#707070" stroke-width="1.51"/><path d="M348,497L379,652L496,468Z" fill="#bababa" stroke="#bababa" stroke-width="1.51"/><path d="M466,933L487,1126L544,1020Z" fill="#8e8e8e" stroke="#8e8e8e" stroke-width="1.51"/><path d="M405,-12L389,13L544,16Z" fill="#dcdcdc" stroke="#dcdcdc" stroke-width="1.51"/><path d="M271,115L274,169L389,13Z" fill="#dddddd" stroke="#dddddd" stroke-width="1.51"/><path d="M466,933L267,972L487,1126Z" fill="#949494" stroke="#949494" stroke-width="1.51"/><path d="M267,972L242,1094L487,1126Z" fill="#929292" stroke="#929292" stroke-width="1.51"/><path d="M303,1239L401,1326L487,1126Z" fill="#7c7c7c" stroke="#7c7c7c" stroke-width="1.51"/><path d="M458,354L348,497L496,468Z" fill="#c2c2c2" stroke="#c2c2c2" stroke-width="1.51"/><path d="M389,13L274,169L498,226Z" fill="#d8d8d8" stroke="#d8d8d8" stroke-width="1.51"/><path d="M332,352L458,354L498,226Z" fill="#cbcbcb" stroke="#cbcbcb" stroke-width="1.51"/><path d="M274,169L332,352L498,226Z" fill="#d2d2d2" stroke="#d2d2d2" stroke-width="1.51"/><path d="M242,1094L303,1239L487,1126Z" fill="#878787" stroke="#878787" stroke-width="1.51"/><path d="M-27,-222L178,-211L233,-228Z" fill="#f2f2f2" stroke="#f2f2f2" stroke-width="1.51"/><path d="M272,-108L405,-12L439,-184Z" fill="#e5e5e5" stroke="#e5e5e5" stroke-width="1.51"/><path d="M332,352L348,497L458,354Z" fill="#c7c7c7" stroke="#c7c7c7" stroke-width="1.51"/><path d="M400,827L267,972L466,933Z" fill="#9d9d9d" stroke="#9d9d9d" stroke-width="1.51"/><path d="M379,652L240,734L400,827Z" fill="#acacac" stroke="#acacac" stroke-width="1.51"/><path d="M233,-228L272,-108L439,-184Z" fill="#e9e9e9" stroke="#e9e9e9" stroke-width="1.51"/><path d="M227,884L267,972L400,827Z" fill="#a2a2a2" stroke="#a2a2a2" stroke-width="1.51"/><path d="M401,1326L244,1466L413,1369Z" fill="#707070" stroke="#707070" stroke-width="1.51"/><path d="M272,-108L389,13L405,-12Z" fill="#e2e2e2" stroke="#e2e2e2" stroke-width="1.51"/><path d="M303,1239L244,1466L401,1326Z" fill="#747474" stroke="#747474" stroke-width="1.51"/><path d="M240,734L227,884L400,827Z" fill="#a8a8a8" stroke="#a8a8a8" stroke-width="1.51"/><path d="M348,497L193,647L379,652Z" fill="#b9b9b9" stroke="#b9b9b9" stroke-width="1.51"/><path d="M272,-108L271,115L389,13Z" fill="#e2e2e2" stroke="#e2e2e2" stroke-width="1.51"/><path d="M193,647L240,734L379,652Z" fill="#b4b4b4" stroke="#b4b4b4" stroke-width="1.51"/><path d="M142,1398L244,1466L303,1239Z" fill="#767676" stroke="#767676" stroke-width="1.51"/><path d="M332,352L155,429L348,497Z" fill="#c9c9c9" stroke="#c9c9c9" stroke-width="1.51"/><path d="M155,429L193,647L348,497Z" fill="#c3c3c3" stroke="#c3c3c3" stroke-width="1.51"/><path d="M100,-54L271,115L272,-108Z" fill="#e7e7e7" stroke="#e7e7e7" stroke-width="1.51"/><path d="M104,186L155,429L274,169Z" fill="#d9d9d9" stroke="#d9d9d9" stroke-width="1.51"/><path d="M157,1232L142,1398L303,1239Z" fill="#7d7d7d" stroke="#7d7d7d" stroke-width="1.51"/><path d="M274,169L155,429L332,352Z" fill="#d2d2d2" stroke="#d2d2d2" stroke-width="1.51"/><path d="M163,803L227,884L240,734Z" fill="#ababab" stroke="#ababab" stroke-width="1.51"/><path d="M100,-54L168,138L271,115Z" fill="#e4e4e4" stroke="#e4e4e4" stroke-width="1.51"/><path d="M242,1094L157,1232L303,1239Z" fill="#878787" stroke="#878787" stroke-width="1.51"/><path d="M155,429L74,493L193,647Z" fill="#c6c6c6" stroke="#c6c6c6" stroke-width="1.51"/><path d="M160,1104L157,1232L242,1094Z" fill="#8e8e8e" stroke="#8e8e8e" stroke-width="1.51"/><path d="M142,1398L-6,1433L244,1466Z" fill="#747474" stroke="#747474" stroke-width="1.51"/><path d="M227,884L161,930L267,972Z" fill="#a2a2a2" stroke="#a2a2a2" stroke-width="1.51"/><path d="M160,1104L242,1094L267,972Z" fill="#979797" stroke="#979797" stroke-width="1.51"/><path d="M161,930L160,1104L267,972Z" fill="#9d9d9d" stroke="#9d9d9d" stroke-width="1.51"/><path d="M233,-228L178,-211L272,-108Z" fill="#ededed" stroke="#ededed" stroke-width="1.51"/><path d="M168,138L104,186L274,169Z" fill="#dfdfdf" stroke="#dfdfdf" stroke-width="1.51"/><path d="M271,115L168,138L274,169Z" fill="#dedede" stroke="#dedede" stroke-width="1.51"/><path d="M178,-211L100,-54L272,-108Z" fill="#ececec" stroke="#ececec" stroke-width="1.51"/><path d="M193,647L163,803L240,734Z" fill="#b2b2b2" stroke="#b2b2b2" stroke-width="1.51"/><path d="M163,803L161,930L227,884Z" fill="#a7a7a7" stroke="#a7a7a7" stroke-width="1.51"/><path d="M104,186L-31,266L155,429Z" fill="#dbdbdb" stroke="#dbdbdb" stroke-width="1.51"/><path d="M-4,1297L142,1398L157,1232Z" fill="#7f7f7f" stroke="#7f7f7f" stroke-width="1.51"/><path d="M2,1119L160,1104L161,930Z" fill="#9b9b9b" stroke="#9b9b9b" stroke-width="1.51"/><path d="M47,885L161,930L163,803Z" fill="#a9a9a9" stroke="#a9a9a9" stroke-width="1.51"/><path d="M-4,648L163,803L193,647Z" fill="#b8b8b8" stroke="#b8b8b8" stroke-width="1.51"/><path d="M74,493L-4,648L193,647Z" fill="#c2c2c2" stroke="#c2c2c2" stroke-width="1.51"/><path d="M-13,557L-4,648L74,493Z" fill="#c6c6c6" stroke="#c6c6c6" stroke-width="1.51"/><path d="M100,-54L-36,-15L104,186Z" fill="#eaeaea" stroke="#eaeaea" stroke-width="1.51"/><path d="M-31,266L-48,408L155,429Z" fill="#d8d8d8" stroke="#d8d8d8" stroke-width="1.51"/><path d="M2,1119L157,1232L160,1104Z" fill="#8f8f8f" stroke="#8f8f8f" stroke-width="1.51"/><path d="M47,885L2,1119L161,930Z" fill="#a2a2a2" stroke="#a2a2a2" stroke-width="1.51"/><path d="M100,-54L104,186L168,138Z" fill="#e5e5e5" stroke="#e5e5e5" stroke-width="1.51"/><path d="M-27,-222L100,-54L178,-211Z" fill="#f2f2f2" stroke="#f2f2f2" stroke-width="1.51"/><path d="M-69,1016L2,1119L47,885Z" fill="#a2a2a2" stroke="#a2a2a2" stroke-width="1.51"/><path d="M-36,-15L-65,125L104,186Z" fill="#e8e8e8" stroke="#e8e8e8" stroke-width="1.51"/><path d="M-4,648L47,885L163,803Z" fill="#b3b3b3" stroke="#b3b3b3" stroke-width="1.51"/><path d="M-48,408L74,493L155,429Z" fill="#d0d0d0" stroke="#d0d0d0" stroke-width="1.51"/><path d="M2,1119L-4,1297L157,1232Z" fill="#8a8a8a" stroke="#8a8a8a" stroke-width="1.51"/><path d="M-4,1297L-6,1433L142,1398Z" fill="#7b7b7b" stroke="#7b7b7b" stroke-width="1.51"/><path d="M-27,-222L-36,-15L100,-54Z" fill="#f1f1f1" stroke="#f1f1f1" stroke-width="1.51"/><path d="M-65,125L-31,266L104,186Z" fill="#e3e3e3" stroke="#e3e3e3" stroke-width="1.51"/><path d="M-124,-82L-36,-15L-27,-222Z" fill="#f4f4f4" stroke="#f4f4f4" stroke-width="1.51"/><path d="M-138,650L-210,809L-4,648Z" fill="#bebebe" stroke="#bebebe" stroke-width="1.51"/><path d="M-4,648L-210,809L47,885Z" fill="#b6b6b6" stroke="#b6b6b6" stroke-width="1.51"/><path d="M-48,408L-13,557L74,493Z" fill="#cecece" stroke="#cecece" stroke-width="1.51"/><path d="M-105,1120L-4,1297L2,1119Z" fill="#919191" stroke="#919191" stroke-width="1.51"/><path d="M-188,922L-69,1016L47,885Z" fill="#a9a9a9" stroke="#a9a9a9" stroke-width="1.51"/><path d="M-210,809L-188,922L47,885Z" fill="#b0b0b0" stroke="#b0b0b0" stroke-width="1.51"/><path d="M-131,270L-48,408L-31,266Z" fill="#dddddd" stroke="#dddddd" stroke-width="1.51"/><path d="M-48,408L-203,489L-13,557Z" fill="#d0d0d0" stroke="#d0d0d0" stroke-width="1.51"/><path d="M-207,1325L-169,1471L-6,1433Z" fill="#7c7c7c" stroke="#7c7c7c" stroke-width="1.51"/><path d="M-13,557L-138,650L-4,648Z" fill="#c3c3c3" stroke="#c3c3c3" stroke-width="1.51"/><path d="M-207,1325L-6,1433L-4,1297Z" fill="#808080" stroke="#808080" stroke-width="1.51"/><path d="M-105,1120L-207,1325L-4,1297Z" fill="#8a8a8a" stroke="#8a8a8a" stroke-width="1.51"/><path d="M-69,1016L-105,1120L2,1119Z" fill="#9c9c9c" stroke="#9c9c9c" stroke-width="1.51"/><path d="M-65,125L-131,270L-31,266Z" fill="#e3e3e3" stroke="#e3e3e3" stroke-width="1.51"/><path d="M-169,100L-65,125L-36,-15Z" fill="#ececec" stroke="#ececec" stroke-width="1.51"/><path d="M-203,489L-138,650L-13,557Z" fill="#c9c9c9" stroke="#c9c9c9" stroke-width="1.51"/><path d="M-131,270L-190,334L-48,408Z" fill="#dddddd" stroke="#dddddd" stroke-width="1.51"/><path d="M-208,-262L-124,-82L-27,-222Z" fill="#f8f8f8" stroke="#f8f8f8" stroke-width="1.51"/><path d="M-124,-82L-169,100L-36,-15Z" fill="#f0f0f0" stroke="#f0f0f0" stroke-width="1.51"/><path d="M-169,100L-131,270L-65,125Z" fill="#e8e8e8" stroke="#e8e8e8" stroke-width="1.51"/><path d="M-190,334L-203,489L-48,408Z" fill="#d8d8d8" stroke="#d8d8d8" stroke-width="1.51"/><path d="M-188,922L-105,1120L-69,1016Z" fill="#a4a4a4" stroke="#a4a4a4" stroke-width="1.51"/><path d="M-188,922L-207,1325L-105,1120Z" fill="#9a9a9a" stroke="#9a9a9a" stroke-width="1.51"/><path d="M-169,100L-190,334L-131,270Z" fill="#e4e4e4" stroke="#e4e4e4" stroke-width="1.51"/><path d="M-208,-262L-169,100L-124,-82Z" fill="#f5f5f5" stroke="#f5f5f5" stroke-width="1.51"/><path d="M-203,489L-210,809L-138,650Z" fill="#c4c4c4" stroke="#c4c4c4" stroke-width="1.51"/><path d="M-208,-262L-190,334L-169,100Z" fill="#efefef" stroke="#efefef" stroke-width="1.51"/><path d="M-208,-262L-203,489L-190,334Z" fill="#e8e8e8" stroke="#e8e8e8" stroke-width="1.51"/><path d="M-210,809L-207,1325L-188,922Z" fill="#a6a6a6" stroke="#a6a6a6" stroke-width="1.51"/><path d="M-208,-262L-210,809L-203,489Z" fill="#dfdfdf" stroke="#dfdfdf" stroke-width="1.51"/></svg>