<svg width="1920" height="1102" xmlns="http://www.w3.org/2000/svg"><g><path d="M-45,-19L-129,397L-44,52Z" fill="#f6a37e" stroke="#f6a37e"/><path d="M-45,-19L-44,52L172,22Z" fill="#f89c73" stroke="#f89c73"/><path d="M-45,-19L172,22L15,-131Z" fill="#f8966a" stroke="#f8966a"/><path d="M15,-131L172,22L260,-39Z" fill="#f99f75" stroke="#f99f75"/><path d="M15,-131L260,-39L400,-104Z" fill="#faa076" stroke="#faa076"/><path d="M15,-131L400,-104L1069,-114Z" fill="#fdb692" stroke="#fdb692"/><path d="M15,-131L1069,-114L1261,-126Z" fill="#f4b798" stroke="#f4b798"/><path d="M260,-39L172,22L267,185Z" fill="#fab493" stroke="#fab493"/><path d="M260,-39L267,185L434,93Z" fill="#fbbfa2" stroke="#fbbfa2"/><path d="M260,-39L434,93L400,-104Z" fill="#fcb795" stroke="#fcb795"/><path d="M400,-104L434,93L481,58Z" fill="#fdc1a5" stroke="#fdc1a5"/><path d="M400,-104L481,58L549,-76Z" fill="#fdbe9f" stroke="#fdbe9f"/><path d="M400,-104L549,-76L706,-66Z" fill="#fec0a0" stroke="#fec0a0"/><path d="M400,-104L706,-66L1069,-114Z" fill="#f8bfa1" stroke="#f8bfa1"/><path d="M549,-76L481,58L675,76Z" fill="#feceb5" stroke="#feceb5"/><path d="M549,-76L675,76L706,-66Z" fill="#ffcfb6" stroke="#ffcfb6"/><path d="M706,-66L675,76L862,-65Z" fill="#f7c7ae" stroke="#f7c7ae"/><path d="M706,-66L862,-65L1069,-114Z" fill="#ecb598" stroke="#ecb598"/><path d="M862,-65L675,76L852,132Z" fill="#f3cbb7" stroke="#f3cbb7"/><path d="M862,-65L852,132L947,123Z" fill="#ecc6b3" stroke="#ecc6b3"/><path d="M862,-65L947,123L973,-49Z" fill="#e8bba4" stroke="#e8bba4"/><path d="M862,-65L973,-49L1069,-114Z" fill="#e5ae92" stroke="#e5ae92"/><path d="M973,-49L947,123L1076,116Z" fill="#e3bdaa" stroke="#e3bdaa"/><path d="M973,-49L1076,116L1069,-114Z" fill="#dfb097" stroke="#dfb097"/><path d="M1069,-114L1076,116L1244,125Z" fill="#d8b09b" stroke="#d8b09b"/><path d="M1069,-114L1244,125L1261,-126Z" fill="#d3a187" stroke="#d3a187"/><path d="M1261,-126L1244,125L1409,39Z" fill="#ca9e88" stroke="#ca9e88"/><path d="M1261,-126L1409,39L1481,-62Z" fill="#c49075" stroke="#c49075"/><path d="M1261,-126L1481,-62L1532,-97Z" fill="#c1876a" stroke="#c1876a"/><path d="M1261,-126L1532,-97L1838,-116Z" fill="#b77c5d" stroke="#b77c5d"/><path d="M1481,-62L1409,39L1604,47Z" fill="#bb8e77" stroke="#bb8e77"/><path d="M1481,-62L1604,47L1532,-97Z" fill="#b8866c" stroke="#b8866c"/><path d="M1532,-97L1604,47L1677,-62Z" fill="#b28066" stroke="#b28066"/><path d="M1532,-97L1677,-62L1838,-116Z" fill="#ac7356" stroke="#ac7356"/><path d="M1677,-62L1604,47L1742,27Z" fill="#ad8069" stroke="#ad8069"/><path d="M1677,-62L1742,27L1838,-116Z" fill="#a77358" stroke="#a77358"/><path d="M1838,-116L1742,27L1912,133Z" fill="#a0755e" stroke="#a0755e"/><path d="M1838,-116L1912,133L2029,-26Z" fill="#996b53" stroke="#996b53"/><path d="M2029,-26L1912,133L2053,22Z" fill="#936b56" stroke="#936b56"/><path d="M-44,52L-129,397L-19,211Z" fill="#f6ad8d" stroke="#f6ad8d"/><path d="M-44,52L-19,211L100,129Z" fill="#f7a886" stroke="#f7a886"/><path d="M-44,52L100,129L172,22Z" fill="#f8a782" stroke="#f8a782"/><path d="M100,129L-19,211L66,267Z" fill="#f8b598" stroke="#f8b598"/><path d="M100,129L66,267L267,185Z" fill="#f9bca2" stroke="#f9bca2"/><path d="M100,129L267,185L172,22Z" fill="#f9b697" stroke="#f9b697"/><path d="M434,93L267,185L354,259Z" fill="#fccdb8" stroke="#fccdb8"/><path d="M434,93L354,259L476,225Z" fill="#fdd6c3" stroke="#fdd6c3"/><path d="M434,93L476,225L481,58Z" fill="#fdd1bc" stroke="#fdd1bc"/><path d="M481,58L476,225L675,76Z" fill="#fed8c5" stroke="#fed8c5"/><path d="M675,76L476,225L626,271Z" fill="#ffe5d8" stroke="#ffe5d8"/><path d="M675,76L626,271L804,179Z" fill="#fae2d6" stroke="#fae2d6"/><path d="M675,76L804,179L852,132Z" fill="#f4d7c7" stroke="#f4d7c7"/><path d="M852,132L804,179L965,263Z" fill="#edd7cc" stroke="#edd7cc"/><path d="M852,132L965,263L947,123Z" fill="#e9d1c4" stroke="#e9d1c4"/><path d="M947,123L965,263L1076,116Z" fill="#e3cabd" stroke="#e3cabd"/><path d="M1076,116L965,263L1114,249Z" fill="#decbc1" stroke="#decbc1"/><path d="M1076,116L1114,249L1244,125Z" fill="#d7beb1" stroke="#d7beb1"/><path d="M1244,125L1114,249L1278,265Z" fill="#d2bfb5" stroke="#d2bfb5"/><path d="M1244,125L1278,265L1417,284Z" fill="#cab8af" stroke="#cab8af"/><path d="M1244,125L1417,284L1409,39Z" fill="#c6ab9d" stroke="#c6ab9d"/><path d="M1409,39L1417,284L1519,181Z" fill="#bfa699" stroke="#bfa699"/><path d="M1409,39L1519,181L1604,47Z" fill="#ba9785" stroke="#ba9785"/><path d="M1604,47L1519,181L1728,217Z" fill="#b19688" stroke="#b19688"/><path d="M1604,47L1728,217L1742,27Z" fill="#ab8a78" stroke="#ab8a78"/><path d="M1742,27L1728,217L1912,133Z" fill="#a38576" stroke="#a38576"/><path d="M1912,133L1728,217L1823,244Z" fill="#a18c81" stroke="#a18c81"/><path d="M1912,133L1823,244L2036,198Z" fill="#998378" stroke="#998378"/><path d="M1912,133L2036,198L2053,22Z" fill="#937464" stroke="#937464"/><path d="M2053,22L2036,198L2033,546Z" fill="#90827b" stroke="#90827b"/><path d="M2053,22L2033,546L2066,968Z" fill="#808080" stroke="#808080"/><path d="M-19,211L-129,397L39,375Z" fill="#f7bca5" stroke="#f7bca5"/><path d="M-19,211L39,375L66,267Z" fill="#f8bda5" stroke="#f8bda5"/><path d="M66,267L39,375L187,432Z" fill="#f8cdbb" stroke="#f8cdbb"/><path d="M66,267L187,432L267,185Z" fill="#f9ccb9" stroke="#f9ccb9"/><path d="M267,185L187,432L354,259Z" fill="#fbd4c4" stroke="#fbd4c4"/><path d="M354,259L187,432L377,359Z" fill="#fbdfd3" stroke="#fbdfd3"/><path d="M354,259L377,359L476,225Z" fill="#fcdfd2" stroke="#fcdfd2"/><path d="M476,225L377,359L467,430Z" fill="#fde9e1" stroke="#fde9e1"/><path d="M476,225L467,430L626,271Z" fill="#feede6" stroke="#feede6"/><path d="M626,271L467,430L698,378Z" fill="#fffaf8" stroke="#fffaf8"/><path d="M626,271L698,378L804,179Z" fill="#faeee9" stroke="#faeee9"/><path d="M804,179L698,378L783,382Z" fill="#f6efec" stroke="#f6efec"/><path d="M804,179L783,382L965,263Z" fill="#eee3dd" stroke="#eee3dd"/><path d="M965,263L783,382L977,345Z" fill="#eae5e3" stroke="#eae5e3"/><path d="M965,263L977,345L1114,249Z" fill="#e1d7d2" stroke="#e1d7d2"/><path d="M1114,249L977,345L1128,354Z" fill="#ddd6d3" stroke="#ddd6d3"/><path d="M1114,249L1128,354L1278,265Z" fill="#d5cbc6" stroke="#d5cbc6"/><path d="M1278,265L1128,354L1232,402Z" fill="#d2cecd" stroke="#d2cecd"/><path d="M1278,265L1232,402L1417,284Z" fill="#cac4c0" stroke="#cac4c0"/><path d="M1417,284L1232,402L1460,387Z" fill="#c5c4c3" stroke="#c5c4c3"/><path d="M1417,284L1460,387L1519,181Z" fill="#bdb3ae" stroke="#bdb3ae"/><path d="M1519,181L1460,387L1589,417Z" fill="#b9b4b1" stroke="#b9b4b1"/><path d="M1519,181L1589,417L1673,388Z" fill="#b3aeac" stroke="#b3aeac"/><path d="M1519,181L1673,388L1728,217Z" fill="#b0a39c" stroke="#b0a39c"/><path d="M1728,217L1673,388L1823,244Z" fill="#a79d97" stroke="#a79d97"/><path d="M1823,244L1673,388L1887,361Z" fill="#a39f9c" stroke="#a39f9c"/><path d="M1823,244L1887,361L2036,198Z" fill="#9a8d87" stroke="#9a8d87"/><path d="M2036,198L1887,361L2003,368Z" fill="#958e8a" stroke="#958e8a"/><path d="M2036,198L2003,368L2033,546Z" fill="#909090" stroke="#909090"/><path d="M-129,397L-107,786L-122,468Z" fill="#e4a890" stroke="#e4a890"/><path d="M-129,397L-122,468L39,375Z" fill="#f2baa4" stroke="#f2baa4"/><path d="M39,375L-122,468L98,474Z" fill="#f0beaa" stroke="#f0beaa"/><path d="M39,375L98,474L187,432Z" fill="#f3c9b8" stroke="#f3c9b8"/><path d="M187,432L98,474L206,506Z" fill="#efc9ba" stroke="#efc9ba"/><path d="M187,432L206,506L377,359Z" fill="#f4d6ca" stroke="#f4d6ca"/><path d="M377,359L206,506L404,583Z" fill="#f0d7ce" stroke="#f0d7ce"/><path d="M377,359L404,583L467,430Z" fill="#f3e2db" stroke="#f3e2db"/><path d="M467,430L404,583L531,499Z" fill="#f0e2dd" stroke="#f0e2dd"/><path d="M467,430L531,499L698,378Z" fill="#f7f1ef" stroke="#f7f1ef"/><path d="M698,378L531,499L628,559Z" fill="#f4f2f2" stroke="#f4f2f2"/><path d="M698,378L628,559L783,382Z" fill="#f3f3f3" stroke="#f3f3f3"/><path d="M783,382L628,559L870,529Z" fill="#eaeaea" stroke="#eaeaea"/><path d="M783,382L870,529L977,345Z" fill="#e7e7e7" stroke="#e7e7e7"/><path d="M977,345L870,529L977,585Z" fill="#dbdbdb" stroke="#dbdbdb"/><path d="M977,345L977,585L1122,535Z" fill="#d5d5d5" stroke="#d5d5d5"/><path d="M977,345L1122,535L1128,354Z" fill="#d8d8d8" stroke="#d8d8d8"/><path d="M1128,354L1122,535L1232,402Z" fill="#cfcfcf" stroke="#cfcfcf"/><path d="M1232,402L1122,535L1317,585Z" fill="#c3c3c3" stroke="#c3c3c3"/><path d="M1232,402L1317,585L1448,494Z" fill="#bcbcbc" stroke="#bcbcbc"/><path d="M1232,402L1448,494L1460,387Z" fill="#bebebe" stroke="#bebebe"/><path d="M1460,387L1448,494L1589,417Z" fill="#b4b4b4" stroke="#b4b4b4"/><path d="M1589,417L1448,494L1548,574Z" fill="#acacac" stroke="#acacac"/><path d="M1589,417L1548,574L1686,573Z" fill="#a3a3a3" stroke="#a3a3a3"/><path d="M1589,417L1686,573L1673,388Z" fill="#a6a6a6" stroke="#a6a6a6"/><path d="M1673,388L1686,573L1889,477Z" fill="#9c9c9c" stroke="#9c9c9c"/><path d="M1673,388L1889,477L1887,361Z" fill="#9e9e9e" stroke="#9e9e9e"/><path d="M1887,361L1889,477L2003,368Z" fill="#959595" stroke="#959595"/><path d="M2003,368L1889,477L2033,546Z" fill="#8b8b8b" stroke="#8b8b8b"/><path d="M-122,468L-107,786L-28,725Z" fill="#d9a089" stroke="#d9a089"/><path d="M-122,468L-28,725L67,659Z" fill="#dea994" stroke="#dea994"/><path d="M-122,468L67,659L98,474Z" fill="#e7b6a2" stroke="#e7b6a2"/><path d="M98,474L67,659L179,630Z" fill="#e3b9a9" stroke="#e3b9a9"/><path d="M98,474L179,630L206,506Z" fill="#e8c2b3" stroke="#e8c2b3"/><path d="M206,506L179,630L404,583Z" fill="#e6c8bd" stroke="#e6c8bd"/><path d="M404,583L179,630L333,730Z" fill="#dfc5ba" stroke="#dfc5ba"/><path d="M404,583L333,730L488,674Z" fill="#dfcdc5" stroke="#dfcdc5"/><path d="M404,583L488,674L531,499Z" fill="#e8dbd5" stroke="#e8dbd5"/><path d="M531,499L488,674L621,640Z" fill="#e7dfdc" stroke="#e7dfdc"/><path d="M531,499L621,640L628,559Z" fill="#ebe7e6" stroke="#ebe7e6"/><path d="M628,559L621,640L873,623Z" fill="#e2e2e2" stroke="#e2e2e2"/><path d="M628,559L873,623L870,529Z" fill="#dfdfdf" stroke="#dfdfdf"/><path d="M870,529L873,623L977,585Z" fill="#d5d5d5" stroke="#d5d5d5"/><path d="M977,585L873,623L1034,717Z" fill="#cacaca" stroke="#cacaca"/><path d="M977,585L1034,717L1075,680Z" fill="#c3c3c3" stroke="#c3c3c3"/><path d="M977,585L1075,680L1122,535Z" fill="#c7c7c7" stroke="#c7c7c7"/><path d="M1122,535L1075,680L1264,707Z" fill="#bbbbbb" stroke="#bbbbbb"/><path d="M1122,535L1264,707L1317,585Z" fill="#b8b8b8" stroke="#b8b8b8"/><path d="M1317,585L1264,707L1478,654Z" fill="#aaaaaa" stroke="#aaaaaa"/><path d="M1317,585L1478,654L1448,494Z" fill="#adadad" stroke="#adadad"/><path d="M1448,494L1478,654L1548,574Z" fill="#a7a7a7" stroke="#a7a7a7"/><path d="M1548,574L1478,654L1555,674Z" fill="#9e9e9e" stroke="#9e9e9e"/><path d="M1548,574L1555,674L1686,573Z" fill="#9b9b9b" stroke="#9b9b9b"/><path d="M1686,573L1555,674L1773,718Z" fill="#919191" stroke="#919191"/><path d="M1686,573L1773,718L1890,649Z" fill="#888888" stroke="#888888"/><path d="M1686,573L1890,649L1889,477Z" fill="#8d8d8d" stroke="#8d8d8d"/><path d="M1889,477L1890,649L1972,622Z" fill="#848484" stroke="#848484"/><path d="M1889,477L1972,622L2033,546Z" fill="#848484" stroke="#848484"/><path d="M2033,546L1972,622L2054,867Z" fill="#727272" stroke="#727272"/><path d="M2033,546L2054,867L2066,968Z" fill="#646464" stroke="#646464"/><path d="M-28,725L-107,786L39,839Z" fill="#cd9883" stroke="#cd9883"/><path d="M-28,725L39,839L67,659Z" fill="#d3a28f" stroke="#d3a28f"/><path d="M67,659L39,839L276,802Z" fill="#d1a999" stroke="#d1a999"/><path d="M67,659L276,802L179,630Z" fill="#d8b4a5" stroke="#d8b4a5"/><path d="M179,630L276,802L333,730Z" fill="#d8baae" stroke="#d8baae"/><path d="M333,730L276,802L369,811Z" fill="#d2bab0" stroke="#d2bab0"/><path d="M333,730L369,811L488,674Z" fill="#d7c4bc" stroke="#d7c4bc"/><path d="M488,674L369,811L579,880Z" fill="#d3c7c1" stroke="#d3c7c1"/><path d="M488,674L579,880L662,769Z" fill="#d6d1cf" stroke="#d6d1cf"/><path d="M488,674L662,769L621,640Z" fill="#dedad9" stroke="#dedad9"/><path d="M621,640L662,769L873,623Z" fill="#dadada" stroke="#dadada"/><path d="M873,623L662,769L795,870Z" fill="#cecece" stroke="#cecece"/><path d="M873,623L795,870L1014,833Z" fill="#c3c3c3" stroke="#c3c3c3"/><path d="M873,623L1014,833L1034,717Z" fill="#c1c1c1" stroke="#c1c1c1"/><path d="M1034,717L1014,833L1136,821Z" fill="#b4b4b4" stroke="#b4b4b4"/><path d="M1034,717L1136,821L1075,680Z" fill="#b7b7b7" stroke="#b7b7b7"/><path d="M1075,680L1136,821L1264,707Z" fill="#b1b1b1" stroke="#b1b1b1"/><path d="M1264,707L1136,821L1320,823Z" fill="#a6a6a6" stroke="#a6a6a6"/><path d="M1264,707L1320,823L1478,654Z" fill="#a2a2a2" stroke="#a2a2a2"/><path d="M1478,654L1320,823L1408,863Z" fill="#9a9a9a" stroke="#9a9a9a"/><path d="M1478,654L1408,863L1516,848Z" fill="#939393" stroke="#939393"/><path d="M1478,654L1516,848L1555,674Z" fill="#969696" stroke="#969696"/><path d="M1555,674L1516,848L1723,812Z" fill="#8a8a8a" stroke="#8a8a8a"/><path d="M1555,674L1723,812L1773,718Z" fill="#888888" stroke="#888888"/><path d="M1773,718L1723,812L1883,841Z" fill="#797979" stroke="#797979"/><path d="M1773,718L1883,841L1890,649Z" fill="#7a7a7a" stroke="#7a7a7a"/><path d="M1890,649L1883,841L1972,622Z" fill="#787878" stroke="#787878"/><path d="M1972,622L1883,841L2054,867Z" fill="#6d6d6d" stroke="#6d6d6d"/><path d="M-107,786L-33,1301L-31,1109Z" fill="#b17a64" stroke="#b17a64"/><path d="M-107,786L-31,1109L-21,971Z" fill="#bc8570" stroke="#bc8570"/><path d="M-107,786L-21,971L39,839Z" fill="#c5917c" stroke="#c5917c"/><path d="M39,839L-21,971L100,958Z" fill="#c1917f" stroke="#c1917f"/><path d="M39,839L100,958L167,965Z" fill="#c29786" stroke="#c29786"/><path d="M39,839L167,965L276,802Z" fill="#c7a192" stroke="#c7a192"/><path d="M276,802L167,965L357,949Z" fill="#c5a89c" stroke="#c5a89c"/><path d="M276,802L357,949L369,811Z" fill="#cbb3a9" stroke="#cbb3a9"/><path d="M369,811L357,949L529,931Z" fill="#c8b6b0" stroke="#c8b6b0"/><path d="M369,811L529,931L579,880Z" fill="#cbbfbb" stroke="#cbbfbb"/><path d="M579,880L529,931L711,952Z" fill="#c8c5c4" stroke="#c8c5c4"/><path d="M579,880L711,952L662,769Z" fill="#cdcdcd" stroke="#cdcdcd"/><path d="M662,769L711,952L795,870Z" fill="#c7c7c7" stroke="#c7c7c7"/><path d="M795,870L711,952L821,1024Z" fill="#bababa" stroke="#bababa"/><path d="M795,870L821,1024L1009,980Z" fill="#b2b2b2" stroke="#b2b2b2"/><path d="M795,870L1009,980L1014,833Z" fill="#b3b3b3" stroke="#b3b3b3"/><path d="M1014,833L1009,980L1136,992Z" fill="#a6a6a6" stroke="#a6a6a6"/><path d="M1014,833L1136,992L1136,821Z" fill="#a8a8a8" stroke="#a8a8a8"/><path d="M1136,821L1136,992L1295,968Z" fill="#9c9c9c" stroke="#9c9c9c"/><path d="M1136,821L1295,968L1320,823Z" fill="#9d9d9d" stroke="#9d9d9d"/><path d="M1320,823L1295,968L1408,863Z" fill="#949494" stroke="#949494"/><path d="M1408,863L1295,968L1438,966Z" fill="#8c8c8c" stroke="#8c8c8c"/><path d="M1408,863L1438,966L1516,848Z" fill="#8a8a8a" stroke="#8a8a8a"/><path d="M1516,848L1438,966L1567,1009Z" fill="#818181" stroke="#818181"/><path d="M1516,848L1567,1009L1674,986Z" fill="#7a7a7a" stroke="#7a7a7a"/><path d="M1516,848L1674,986L1723,812Z" fill="#7d7d7d" stroke="#7d7d7d"/><path d="M1723,812L1674,986L1883,841Z" fill="#737373" stroke="#737373"/><path d="M1883,841L1674,986L1931,972Z" fill="#686868" stroke="#686868"/><path d="M1883,841L1931,972L2054,867Z" fill="#626262" stroke="#626262"/><path d="M2054,867L1931,972L2066,968Z" fill="#595959" stroke="#595959"/><path d="M-21,971L-31,1109L41,1129Z" fill="#b17e6a" stroke="#b17e6a"/><path d="M-21,971L41,1129L100,958Z" fill="#b78775" stroke="#b78775"/><path d="M100,958L41,1129L167,965Z" fill="#b88e7d" stroke="#b88e7d"/><path d="M167,965L41,1129L253,1158Z" fill="#b28c7d" stroke="#b28c7d"/><path d="M167,965L253,1158L342,1074Z" fill="#b5968a" stroke="#b5968a"/><path d="M167,965L342,1074L357,949Z" fill="#bca196" stroke="#bca196"/><path d="M357,949L342,1074L529,931Z" fill="#bfada5" stroke="#bfada5"/><path d="M529,931L342,1074L501,1180Z" fill="#b8aaa4" stroke="#b8aaa4"/><path d="M529,931L501,1180L635,1146Z" fill="#b7b0ad" stroke="#b7b0ad"/><path d="M529,931L635,1146L711,952Z" fill="#bfbebd" stroke="#bfbebd"/><path d="M711,952L635,1146L821,1024Z" fill="#b6b6b6" stroke="#b6b6b6"/><path d="M821,1024L635,1146L877,1116Z" fill="#acacac" stroke="#acacac"/><path d="M821,1024L877,1116L1009,980Z" fill="#a7a7a7" stroke="#a7a7a7"/><path d="M1009,980L877,1116L991,1098Z" fill="#a0a0a0" stroke="#a0a0a0"/><path d="M1009,980L991,1098L1075,1110Z" fill="#9c9c9c" stroke="#9c9c9c"/><path d="M1009,980L1075,1110L1136,992Z" fill="#9b9b9b" stroke="#9b9b9b"/><path d="M1136,992L1075,1110L1273,1078Z" fill="#919191" stroke="#919191"/><path d="M1136,992L1273,1078L1295,968Z" fill="#909090" stroke="#909090"/><path d="M1295,968L1273,1078L1379,1126Z" fill="#858585" stroke="#858585"/><path d="M1295,968L1379,1126L1438,966Z" fill="#848484" stroke="#848484"/><path d="M1438,966L1379,1126L1567,1009Z" fill="#7c7c7c" stroke="#7c7c7c"/><path d="M1567,1009L1379,1126L1586,1179Z" fill="#707070" stroke="#707070"/><path d="M1567,1009L1586,1179L1706,1148Z" fill="#676767" stroke="#676767"/><path d="M1567,1009L1706,1148L1674,986Z" fill="#6b6b6b" stroke="#6b6b6b"/><path d="M1674,986L1706,1148L1860,1070Z" fill="#626262" stroke="#626262"/><path d="M1674,986L1860,1070L1931,972Z" fill="#616161" stroke="#616161"/><path d="M1931,972L1860,1070L2030,1081Z" fill="#555555" stroke="#555555"/><path d="M1931,972L2030,1081L2066,968Z" fill="#535353" stroke="#535353"/><path d="M-31,1109L-33,1301L68,1222Z" fill="#a3715d" stroke="#a3715d"/><path d="M-31,1109L68,1222L41,1129Z" fill="#aa7966" stroke="#aa7966"/><path d="M41,1129L68,1222L253,1158Z" fill="#a98070" stroke="#a98070"/><path d="M253,1158L68,1222L243,1301Z" fill="#a48072" stroke="#a48072"/><path d="M253,1158L243,1301L352,1315Z" fill="#a2867b" stroke="#a2867b"/><path d="M253,1158L352,1315L342,1074Z" fill="#aa9186" stroke="#aa9186"/><path d="M342,1074L352,1315L501,1180Z" fill="#ab9890" stroke="#ab9890"/><path d="M501,1180L352,1315L565,1334Z" fill="#a39590" stroke="#a39590"/><path d="M501,1180L565,1334L635,1146Z" fill="#aaa4a2" stroke="#aaa4a2"/><path d="M635,1146L565,1334L710,1247Z" fill="#a8a8a8" stroke="#a8a8a8"/><path d="M635,1146L710,1247L877,1116Z" fill="#a8a8a8" stroke="#a8a8a8"/><path d="M877,1116L710,1247L846,1326Z" fill="#9c9c9c" stroke="#9c9c9c"/><path d="M877,1116L846,1326L958,1276Z" fill="#959595" stroke="#959595"/><path d="M877,1116L958,1276L991,1098Z" fill="#989898" stroke="#989898"/><path d="M991,1098L958,1276L1075,1110Z" fill="#939393" stroke="#939393"/><path d="M1075,1110L958,1276L1097,1275Z" fill="#8a8a8a" stroke="#8a8a8a"/><path d="M1075,1110L1097,1275L1225,1223Z" fill="#858585" stroke="#858585"/><path d="M1075,1110L1225,1223L1273,1078Z" fill="#878787" stroke="#878787"/><path d="M1273,1078L1225,1223L1379,1126Z" fill="#7e7e7e" stroke="#7e7e7e"/><path d="M1379,1126L1225,1223L1480,1261Z" fill="#737373" stroke="#737373"/><path d="M1379,1126L1480,1261L1586,1179Z" fill="#6b6b6b" stroke="#6b6b6b"/><path d="M1586,1179L1480,1261L1575,1217Z" fill="#626262" stroke="#626262"/><path d="M1586,1179L1575,1217L1706,1148Z" fill="#606060" stroke="#606060"/><path d="M1706,1148L1575,1217L1764,1280Z" fill="#585858" stroke="#585858"/><path d="M1706,1148L1764,1280L1860,1070Z" fill="#555555" stroke="#555555"/><path d="M1860,1070L1764,1280L1832,1301Z" fill="#4d4d4d" stroke="#4d4d4d"/><path d="M1860,1070L1832,1301L1965,1251Z" fill="#484848" stroke="#484848"/><path d="M1860,1070L1965,1251L2030,1081Z" fill="#4b4b4b" stroke="#4b4b4b"/><path d="M-33,1301L565,1334L352,1315Z" fill="#9c8176" stroke="#9c8176"/><path d="M-33,1301L352,1315L243,1301Z" fill="#9d796b" stroke="#9d796b"/><path d="M-33,1301L243,1301L68,1222Z" fill="#9e7362" stroke="#9e7362"/><path d="M565,1334L1832,1301L846,1326Z" fill="#7e7e7e" stroke="#7e7e7e"/><path d="M565,1334L846,1326L710,1247Z" fill="#9d9d9d" stroke="#9d9d9d"/><path d="M846,1326L1832,1301L1480,1261Z" fill="#676767" stroke="#676767"/><path d="M846,1326L1480,1261L1097,1275Z" fill="#7c7c7c" stroke="#7c7c7c"/><path d="M846,1326L1097,1275L958,1276Z" fill="#898989" stroke="#898989"/><path d="M1097,1275L1480,1261L1225,1223Z" fill="#757575" stroke="#757575"/><path d="M1480,1261L1832,1301L1764,1280Z" fill="#505050" stroke="#505050"/><path d="M1480,1261L1764,1280L1575,1217Z" fill="#5a5a5a" stroke="#5a5a5a"/></g></svg>